<svg viewBox="0 0 725 687" fill="none" xmlns="http://www.w3.org/2000/svg">
  <path d="M345.3 109h33.5l27.5 427.7-44 150.3-44-150.3 27-427.7Z" fill="#000"/>
  <path d="m362.3 0 54 106.4-54 36.6-54-36.6L362.3 0ZM310.3 222h104v20h-104z" fill="#000"/>
  <path fill="#000" d="m443 194 38.3 38.3-38.3 38.2-38.3-38.2zM281 194l38.3 38.2-38.3 38.3-38.2-38.3z"/>
  <path fill-rule="evenodd" clip-rule="evenodd" d="M312.4 324.8c-49.4-21.4-84.4-74-84.4-135.3v-.5H0c2.4 26.3 7.2 51.8 14 76.3l97 1.7c4 12.8 9 25.2 14.7 37.1L30.2 312C41.3 338.5 55 363.6 71 386.7l80.7-40a264.5 264.5 0 0 0 37.8 40.6l-81.8 44.9c16.7 17.7 35 33.8 54.5 47.8l63.4-66.3a261.8 261.8 0 0 0 50.5 23.9l-45.5 80.7a339 339 0 0 0 68.3 20.7l13.5-214.2ZM425.5 539a338.8 338.8 0 0 0 68.2-20.6L448 437.7c18-6.2 35-14.3 51-24l63.3 66.1c19.6-14 38-30.2 54.7-48l-81.4-45c13.7-12 26.2-25.5 37.1-40l80.6 39.8c15.2-21.9 28.3-45.6 39-70.7l-95.6-7.6c6-12 11.3-24.4 15.5-37.2l96.8-1.8a424.2 424.2 0 0 0 15.3-80.3H495.6v.5c0 61.1-34.7 113.5-83.8 135L425.5 539Z" fill="#000"/>
</svg>
