<svg width="725" height="687" viewBox="0 0 725 687" fill="none" xmlns="http://www.w3.org/2000/svg">
<path d="M345.26 109H378.76L406.26 536.72L362.26 687L318.26 536.72L345.26 109Z" fill="black"/>
<path d="M362.26 0L416.26 106.374L362.26 143L308.26 106.374L362.26 0Z" fill="black"/>
<rect x="310.26" y="222" width="104" height="20" fill="black"/>
<rect x="443.002" y="194" width="54.106" height="54.106" transform="rotate(45 443.002 194)" fill="black"/>
<rect x="281.038" y="194" width="54.106" height="54.106" transform="rotate(45 281.038 194)" fill="black"/>
<path fill-rule="evenodd" clip-rule="evenodd" d="M312.416 324.769C262.972 303.401 228.015 250.891 228.015 189.5C228.015 189.333 228.015 189.167 228.016 189H0C2.41351 215.26 7.1866 240.764 14.0853 265.257L111.033 267.042C115.005 279.843 119.928 292.225 125.721 304.106L30.2435 311.851C41.3017 338.493 54.9921 363.566 70.9542 386.677L151.726 346.647C162.875 361.512 175.561 375.158 189.549 387.348L107.684 432.184C124.384 449.947 142.65 465.975 162.235 480.002L225.595 413.748C241.405 423.382 258.31 431.395 276.081 437.555L230.555 518.341C252.392 527.553 275.248 534.54 298.89 539.045L312.416 324.769ZM425.543 539.012C449.109 534.509 471.893 527.54 493.664 518.358L448.006 437.706C465.978 431.51 483.069 423.422 499.04 413.679L562.287 479.814C581.947 465.708 600.274 449.583 617.02 431.711L535.588 386.809C549.312 374.774 561.772 361.334 572.745 346.713L653.326 386.649C668.461 364.731 681.554 341.049 692.295 315.936L596.715 308.287C602.789 296.373 607.981 283.935 612.206 271.058L709.022 269.275C716.544 243.557 721.715 216.699 724.261 189H495.565C495.565 189.167 495.565 189.333 495.565 189.5C495.565 250.647 460.886 302.984 411.752 324.513L425.543 539.012Z" fill="black"/>
</svg>
